<svg xmlns="http://www.w3.org/2000/svg" xmlns:xlink="http://www.w3.org/1999/xlink" viewBox="0 0 512 512"><defs><style>.cls-1{fill:none;}.cls-2{fill:url(#New_Gradient_Swatch_3);}</style><linearGradient id="New_Gradient_Swatch_3" x1="12.31" y1="256" x2="499.69" y2="256" gradientUnits="userSpaceOnUse"><stop offset="0" stop-color="#f90"/><stop offset="1" stop-color="#ffd100"/></linearGradient></defs><g id="Layer_2" data-name="Layer 2"><g id="Logo"><g id="logo-2" data-name="logo"><rect class="cls-1" width="512" height="512"/><path id="Logo-3" data-name="Logo" class="cls-2" d="M477.83,34.17c-22-22-51.77-27.5-71.48-16-56.07,32.67-172.53-50.52-305.63,82.58S50.81,350.28,18.14,406.35c-11.47,19.71-6,49.5,16,71.48s51.77,27.5,71.48,16c56.07-32.66,172.53,50.53,305.63-82.57s49.91-249.56,82.58-305.63C505.33,85.94,499.82,56.15,477.83,34.17ZM233.09,341.05a23.2,23.2,0,0,1-23.2,23.19h-15a23.2,23.2,0,0,1-23.19-23.19V171a23.2,23.2,0,0,1,23.19-23.19h15A23.2,23.2,0,0,1,233.09,171Zm107.17,0a23.2,23.2,0,0,1-23.19,23.19h-15a23.2,23.2,0,0,1-23.2-23.19V171a23.2,23.2,0,0,1,23.2-23.19h15A23.2,23.2,0,0,1,340.26,171Z"/></g></g></g></svg>